<svg width="25" height="22" viewBox="0 0 25 22" fill="none" xmlns="http://www.w3.org/2000/svg">
<path d="M6.67383 0.240234L9.64014 1.85156C7.24756 4.73242 5.73389 7.19824 5.09912 9.24902C4.75732 10.3721 4.59863 11.4951 4.62305 12.6182H9.78662V21.1509H0.375V14.4492C0.375 10.2256 1.83984 6.19727 4.76953 2.36426C5.4043 1.53418 6.03906 0.826172 6.67383 0.240234ZM21.7617 0.240234L24.728 1.85156C22.3354 4.73242 20.8218 7.19824 20.187 9.24902C19.8452 10.3721 19.6865 11.4951 19.7109 12.6182H24.8745V21.1509H15.4629V14.4492C15.4629 10.2256 16.9277 6.19727 19.8574 2.36426C20.4922 1.53418 21.127 0.826172 21.7617 0.240234Z" fill="black"/>
</svg>
